<svg width="18" height="30" viewBox="0 0 18 30" fill="none" xmlns="http://www.w3.org/2000/svg">
<path d="M16 12V14.992C16 18.856 12.937 22 9.172 22H8.828C5.063 22 2 18.856 2 14.992V12H0V14.992C0 19.674 3.52 23.529 8 23.957V28H4V30H14V28H10V23.957C14.48 23.529 18 19.674 18 14.992V12H16Z" fill="white"/>
<path d="M8.942 20H9.057C11.782 20 13.999 17.783 13.999 15.058V4.942C13.999 2.217 11.782 0 9.057 0H8.942C6.217 0 4 2.217 4 4.942V15.057C4 17.782 6.217 20 8.942 20ZM6 4.942C6 3.319 7.32 2 8.942 2H9.057C10.68 2 11.999 3.32 11.999 4.942V15.057C11.999 16.68 10.679 17.999 9.057 17.999H8.942C7.319 17.999 6 16.679 6 15.057V4.942Z" fill="white"/>
</svg>
