<svg width="93" height="64" viewBox="0 0 93 64" fill="none" xmlns="http://www.w3.org/2000/svg">
<path fill-rule="evenodd" clip-rule="evenodd" d="M71.863 0C60.19 0 50.727 9.463 50.727 21.136C50.727 32.667 59.962 42.034 71.439 42.263C66.102 47.495 58.793 50.727 50.727 50.727V63.41C74.073 63.41 93 44.482 93 21.137C93 9.463 83.536 0 71.863 0ZM21.136 0C9.463 0 0 9.463 0 21.137C0 32.668 9.235 42.035 20.712 42.264C15.375 47.496 8.066 50.727 0 50.727V63.41C23.347 63.41 42.272 44.482 42.272 21.137C42.272 9.463 32.81 0 21.136 0Z" fill="white"/>
</svg>
