<svg width="95" height="32" viewBox="0 0 95 32" fill="none" xmlns="http://www.w3.org/2000/svg">
<path d="M4.896 31.348C4.216 30.26 3.57 29.138 2.958 27.982C2.36867 26.826 1.84733 25.6133 1.394 24.344C0.963333 23.052 0.623333 21.692 0.374 20.264C0.124666 18.836 0 17.306 0 15.674C0 12.9313 0.419333 10.234 1.258 7.582C2.11933 4.93 3.332 2.40267 4.896 0H8.058C6.698 2.448 5.65533 4.964 4.93 7.548C4.22733 10.1093 3.876 12.818 3.876 15.674C3.876 18.53 4.216 21.25 4.896 23.834C5.576 26.418 6.63 28.9227 8.058 31.348H4.896Z" fill="#639288"/>
<path d="M10.3809 0.577998H20.4449C22.3036 0.577998 23.9129 0.895332 25.2729 1.53C26.6329 2.16467 27.7436 3.03733 28.6049 4.148C29.4662 5.236 30.1009 6.51667 30.5089 7.99C30.9396 9.46333 31.1549 11.0387 31.1549 12.716C31.1549 14.3933 30.9396 15.9687 30.5089 17.442C30.1009 18.9153 29.4662 20.2073 28.6049 21.318C27.7436 22.406 26.6329 23.2673 25.2729 23.902C23.9129 24.5367 22.3036 24.854 20.4449 24.854H10.3809V0.577998ZM14.6309 21.386H18.8129C20.4676 21.386 21.8162 21.1707 22.8589 20.74C23.9242 20.2867 24.7516 19.6747 25.3409 18.904C25.9529 18.1107 26.3609 17.1927 26.5649 16.15C26.7916 15.0847 26.9049 13.94 26.9049 12.716C26.9049 11.492 26.7916 10.3587 26.5649 9.316C26.3609 8.25067 25.9529 7.33267 25.3409 6.562C24.7516 5.76867 23.9242 5.15667 22.8589 4.726C21.8162 4.27267 20.4676 4.046 18.8129 4.046H14.6309V21.386Z" fill="#639288"/>
<path d="M34.918 0.577998H51.68V4.25H39.168V10.608H50.15V14.076H39.168V24.854H34.918V0.577998Z" fill="#639288"/>
<path d="M61.3963 15.334L52.2843 0.577998H57.2143L63.6403 11.458L69.9643 0.577998H74.7243L65.6463 15.334V24.854H61.3963V15.334Z" fill="#639288"/>
<path d="M77.4252 0C78.1052 1.088 78.7398 2.22133 79.3292 3.4C79.9185 4.556 80.4285 5.78 80.8592 7.072C81.3125 8.34133 81.6638 9.69 81.9132 11.118C82.1852 12.546 82.3212 14.076 82.3212 15.708C82.3212 18.4507 81.8905 21.148 81.0292 23.8C80.1905 26.452 78.9892 28.968 77.4252 31.348H74.2632C75.6232 28.9227 76.6545 26.4293 77.3572 23.868C78.0825 21.284 78.4452 18.564 78.4452 15.708C78.4452 12.852 78.1052 10.132 77.4252 7.548C76.7452 4.964 75.6912 2.448 74.2632 0H77.4252Z" fill="#639288"/>
<path d="M92.414 5.43305C92.366 5.72106 92.274 5.98105 92.138 6.21305C92.01 6.43705 91.854 6.62905 91.67 6.78905C91.486 6.94905 91.274 7.07305 91.034 7.16105C90.802 7.24105 90.554 7.28105 90.29 7.28105C89.906 7.28105 89.558 7.21305 89.246 7.07705C88.934 6.94105 88.666 6.75305 88.442 6.51305C88.218 6.26505 88.046 5.97705 87.926 5.64905C87.806 5.31305 87.746 4.95305 87.746 4.56905C87.746 4.20905 87.802 3.87305 87.914 3.56105C88.034 3.24105 88.202 2.96905 88.418 2.74505C88.634 2.51305 88.898 2.32905 89.21 2.19305C89.522 2.05705 89.874 1.98905 90.266 1.98905C90.818 1.98905 91.29 2.14505 91.682 2.45705C92.082 2.76105 92.322 3.20905 92.402 3.80105H91.586C91.522 3.49705 91.37 3.24905 91.13 3.05705C90.898 2.86505 90.61 2.76905 90.266 2.76905C90.01 2.76905 89.786 2.81705 89.594 2.91305C89.402 3.00905 89.238 3.13705 89.102 3.29705C88.974 3.45705 88.874 3.64905 88.802 3.87305C88.738 4.08905 88.706 4.32105 88.706 4.56905C88.706 4.83305 88.742 5.08106 88.814 5.31306C88.886 5.54506 88.99 5.74905 89.126 5.92505C89.27 6.10105 89.438 6.24105 89.63 6.34505C89.83 6.44905 90.05 6.50105 90.29 6.50105C90.65 6.50105 90.946 6.40105 91.178 6.20105C91.41 6.00105 91.546 5.74506 91.586 5.43305H92.414ZM93.578 4.56905C93.578 4.02505 93.49 3.52505 93.314 3.06905C93.138 2.61305 92.894 2.22105 92.582 1.89305C92.27 1.56505 91.906 1.31305 91.49 1.13705C91.074 0.953055 90.626 0.861055 90.146 0.861055C89.658 0.861055 89.202 0.953055 88.778 1.13705C88.362 1.31305 87.998 1.56505 87.686 1.89305C87.374 2.22105 87.13 2.61305 86.954 3.06905C86.778 3.52505 86.69 4.02505 86.69 4.56905C86.69 5.08105 86.77 5.56106 86.93 6.00906C87.09 6.45706 87.318 6.84905 87.614 7.18505C87.918 7.52105 88.282 7.78905 88.706 7.98905C89.13 8.18105 89.61 8.27705 90.146 8.27705C90.626 8.27705 91.074 8.18905 91.49 8.01305C91.906 7.82905 92.27 7.57306 92.582 7.24506C92.894 6.91706 93.138 6.52905 93.314 6.08105C93.49 5.62505 93.578 5.12105 93.578 4.56905ZM94.538 4.56905C94.538 5.24105 94.418 5.85306 94.178 6.40506C93.946 6.95706 93.626 7.42906 93.218 7.82106C92.818 8.21306 92.35 8.51706 91.814 8.73306C91.286 8.94906 90.73 9.05706 90.146 9.05706C89.498 9.05706 88.902 8.94506 88.358 8.72106C87.822 8.48906 87.358 8.17306 86.966 7.77306C86.582 7.37306 86.278 6.90105 86.054 6.35705C85.838 5.80505 85.73 5.20905 85.73 4.56905C85.73 3.89705 85.846 3.28505 86.078 2.73305C86.318 2.18105 86.638 1.70905 87.038 1.31705C87.446 0.925054 87.918 0.621054 88.454 0.405054C88.99 0.189054 89.554 0.0810547 90.146 0.0810547C90.73 0.0810547 91.286 0.189054 91.814 0.405054C92.35 0.621054 92.818 0.925054 93.218 1.31705C93.626 1.70905 93.946 2.18105 94.178 2.73305C94.418 3.28505 94.538 3.89705 94.538 4.56905Z" fill="#639288"/>
</svg>
