<svg width="148" height="30" viewBox="0 0 148 30" fill="none" xmlns="http://www.w3.org/2000/svg">
<path fill-rule="evenodd" clip-rule="evenodd" d="M146.165 8.16719L146.145 8.18726L140.075 14.2564L141.017 9.23253C140.428 8.99908 139.876 8.64397 139.399 8.16719C137.531 6.29883 137.531 3.26962 139.399 1.40127C141.267 -0.467089 144.296 -0.467089 146.165 1.40127C147.957 3.19382 148.03 6.05495 146.383 7.93421L146.39 7.94155L146.185 8.14699L146.165 8.16719ZM37.3437 29.3602C37.6797 29.6589 38.1277 29.8082 38.6877 29.8082C39.2477 29.8082 39.6957 29.6589 40.0317 29.3602C40.3864 29.0429 40.5637 28.6322 40.5637 28.1282V16.5922C40.5637 15.1735 40.825 14.1562 41.3477 13.5402C41.8704 12.9055 42.729 12.5882 43.9237 12.5882C44.9877 12.5882 45.8184 12.9429 46.4157 13.6522C47.013 14.3615 47.3117 15.3415 47.3117 16.5922V28.1282C47.3117 28.6509 47.4704 29.0615 47.7877 29.3602C48.1237 29.6589 48.5717 29.8082 49.1317 29.8082C49.6917 29.8082 50.1397 29.6589 50.4757 29.3602C50.8117 29.0615 50.9797 28.6509 50.9797 28.1282V16.5922C50.9797 15.3042 51.269 14.3149 51.8477 13.6242C52.445 12.9335 53.285 12.5882 54.3677 12.5882C55.5624 12.5882 56.421 12.9055 56.9437 13.5402C57.4664 14.1562 57.7277 15.1735 57.7277 16.5922V28.1282C57.7277 28.6509 57.8957 29.0615 58.2317 29.3602C58.5677 29.6589 59.0157 29.8082 59.5757 29.8082C60.1357 29.8082 60.5837 29.6589 60.9197 29.3602C61.2744 29.0429 61.4517 28.6322 61.4517 28.1282V16.5922C61.4517 14.4269 60.8357 12.7282 59.6037 11.4962C58.3717 10.2642 56.673 9.64819 54.5077 9.64819C53.425 9.64819 52.417 9.90019 51.4837 10.4042C50.569 10.9082 49.785 11.6455 49.1317 12.6162C48.4597 11.6642 47.657 10.9362 46.7237 10.4322C45.809 9.90952 44.829 9.64819 43.7837 9.64819C41.6184 9.64819 39.9197 10.2642 38.6877 11.4962C37.4557 12.7282 36.8397 14.4269 36.8397 16.5922V28.1282C36.8397 28.6509 37.0077 29.0615 37.3437 29.3602ZM8.988 29.8082C8.428 29.8082 7.98 29.6589 7.644 29.3602C7.308 29.0615 7.14 28.6509 7.14 28.1282V12.8122H1.736C1.19467 12.8122 0.765333 12.6909 0.448 12.4482C0.149333 12.1869 0 11.8322 0 11.3842C0 10.9175 0.149333 10.5629 0.448 10.3202C0.746667 10.0589 1.176 9.92819 1.736 9.92819H16.268C16.828 9.92819 17.2573 10.0589 17.556 10.3202C17.8547 10.5629 18.004 10.9175 18.004 11.3842C18.004 11.8322 17.8453 12.1869 17.528 12.4482C17.2293 12.6909 16.8093 12.8122 16.268 12.8122H10.864V28.1282C10.864 28.6322 10.6867 29.0429 10.332 29.3602C9.996 29.6589 9.548 29.8082 8.988 29.8082ZM23.9487 29.5282C22.5301 29.5282 21.4287 29.1549 20.6447 28.4082C19.8607 27.6615 19.4688 26.6162 19.4688 25.2722V14.0722C19.4688 12.7655 19.8421 11.7482 20.5887 11.0202C21.3541 10.2922 22.4087 9.92819 23.7527 9.92819H32.4608C33.0208 9.92819 33.4501 10.0589 33.7487 10.3202C34.0474 10.5629 34.1968 10.9175 34.1968 11.3842C34.1968 11.8322 34.0381 12.1869 33.7207 12.4482C33.4221 12.6909 33.0021 12.8122 32.4608 12.8122H24.3967C24.0234 12.8122 23.7248 12.9335 23.5007 13.1762C23.2954 13.4189 23.1927 13.7549 23.1927 14.1842V18.0762H30.3328C30.8927 18.0762 31.3221 18.2069 31.6208 18.4682C31.9194 18.7109 32.0688 19.0655 32.0688 19.5322C32.0688 19.9802 31.9101 20.3349 31.5928 20.5962C31.2941 20.8389 30.8741 20.9602 30.3328 20.9602H23.1927V25.2722C23.1927 25.7015 23.2954 26.0375 23.5007 26.2802C23.7248 26.5229 24.0234 26.6442 24.3967 26.6442H33.0768C33.6367 26.6442 34.0661 26.7749 34.3647 27.0362C34.6634 27.2789 34.8128 27.6335 34.8128 28.1002C34.8128 28.5482 34.6541 28.9029 34.3368 29.1642C34.0381 29.4069 33.6181 29.5282 33.0768 29.5282H23.9487ZM65.5176 29.8082C65.1069 29.8082 64.7803 29.6962 64.5376 29.4722C64.3136 29.2295 64.2016 28.9029 64.2016 28.4922V13.5402C64.2016 12.4202 64.5376 11.5429 65.2096 10.9082C65.8816 10.2549 66.8149 9.92819 68.0096 9.92819H72.7416C75.4669 9.92819 77.5203 10.4975 78.9016 11.6362C80.2829 12.7749 80.9736 14.4642 80.9736 16.7042C80.9736 18.8322 80.2736 20.4655 78.8736 21.6042C77.4923 22.7242 75.4949 23.2842 72.8816 23.2842H66.8336V28.4922C66.8336 28.9029 66.7123 29.2295 66.4696 29.4722C66.2456 29.6962 65.9283 29.8082 65.5176 29.8082ZM72.8816 21.1562C74.6176 21.1562 75.9523 20.8109 76.8856 20.1202C77.8189 19.4109 78.2856 18.2722 78.2856 16.7042C78.2856 15.0802 77.8283 13.9042 76.9136 13.1762C75.9989 12.4295 74.6549 12.0562 72.8816 12.0562H68.2336C67.8043 12.0562 67.4589 12.1962 67.1976 12.4762C66.9549 12.7562 66.8336 13.1295 66.8336 13.5962V21.1562H72.8816ZM84.632 28.5482C85.3226 29.2015 86.2746 29.5282 87.488 29.5282H96.7C97.1106 29.5282 97.428 29.4349 97.652 29.2482C97.8946 29.0615 98.016 28.8002 98.016 28.4642C98.016 28.1095 97.904 27.8482 97.68 27.6802C97.456 27.4935 97.1293 27.4002 96.7 27.4002H87.628C87.1986 27.4002 86.8533 27.2602 86.592 26.9802C86.3493 26.7002 86.228 26.3269 86.228 25.8602V20.5962H93.956C94.3666 20.5962 94.684 20.5029 94.908 20.3162C95.1506 20.1295 95.272 19.8682 95.272 19.5322C95.272 18.8042 94.8333 18.4402 93.956 18.4402H86.228V13.5962C86.228 13.1295 86.3493 12.7562 86.592 12.4762C86.8533 12.1962 87.1986 12.0562 87.628 12.0562H96.084C96.4946 12.0562 96.812 11.9629 97.036 11.7762C97.2786 11.5895 97.4 11.3375 97.4 11.0202C97.4 10.2922 96.9613 9.92819 96.084 9.92819H87.404C86.2093 9.92819 85.276 10.2549 84.604 10.9082C83.932 11.5429 83.596 12.4202 83.596 13.5402V25.8322C83.596 26.9895 83.9413 27.8949 84.632 28.5482ZM109.123 29.8082C107.312 29.8082 105.632 29.5095 104.083 28.9122C102.552 28.2962 101.311 27.4469 100.359 26.3642C100.172 26.1215 100.079 25.8882 100.079 25.6642C100.079 25.3095 100.237 25.0015 100.555 24.7402C100.76 24.5722 100.975 24.4882 101.199 24.4882C101.535 24.4882 101.88 24.6655 102.235 25.0202C103.037 25.8415 104.027 26.4855 105.203 26.9522C106.397 27.4002 107.704 27.6242 109.123 27.6242C110.616 27.6242 111.773 27.3535 112.595 26.8122C113.435 26.2522 113.855 25.4775 113.855 24.4882C113.855 23.5735 113.444 22.8362 112.623 22.2762C111.801 21.6975 110.392 21.1935 108.395 20.7642C105.651 20.1482 103.672 19.3735 102.459 18.4402C101.245 17.5069 100.639 16.2749 100.639 14.7442C100.639 13.7175 100.947 12.8215 101.563 12.0562C102.179 11.2909 103.056 10.7029 104.195 10.2922C105.333 9.86286 106.659 9.64819 108.171 9.64819C109.888 9.64819 111.428 9.94686 112.791 10.5442C114.153 11.1229 115.143 11.9162 115.759 12.9242C115.908 13.1482 115.983 13.3815 115.983 13.6242C115.983 13.9975 115.805 14.3055 115.451 14.5482C115.283 14.6602 115.087 14.7162 114.863 14.7162C114.657 14.7162 114.452 14.6695 114.247 14.5762C114.041 14.4642 113.873 14.3242 113.743 14.1562C113.201 13.4095 112.445 12.8402 111.475 12.4482C110.523 12.0375 109.421 11.8322 108.171 11.8322C106.584 11.8322 105.371 12.0842 104.531 12.5882C103.709 13.0735 103.299 13.7922 103.299 14.7442C103.299 15.3229 103.467 15.8269 103.803 16.2562C104.139 16.6669 104.689 17.0402 105.455 17.3762C106.22 17.6935 107.275 18.0109 108.619 18.3282C111.437 18.9815 113.463 19.7935 114.695 20.7642C115.927 21.7162 116.543 22.9575 116.543 24.4882C116.543 25.5709 116.235 26.5135 115.619 27.3162C115.021 28.1002 114.163 28.7162 113.043 29.1642C111.923 29.5935 110.616 29.8082 109.123 29.8082ZM125.251 29.4722C125.475 29.6962 125.792 29.8082 126.203 29.8082C126.632 29.8082 126.968 29.6962 127.211 29.4722C127.453 29.2295 127.575 28.9029 127.575 28.4922V12.0562H133.651C134.061 12.0562 134.379 11.9629 134.603 11.7762C134.827 11.5895 134.939 11.3375 134.939 11.0202C134.939 10.6655 134.827 10.3949 134.603 10.2082C134.379 10.0215 134.061 9.92819 133.651 9.92819H118.839C117.961 9.92819 117.523 10.2922 117.523 11.0202C117.523 11.3562 117.635 11.6175 117.859 11.8042C118.101 11.9722 118.428 12.0562 118.839 12.0562H124.915V28.4922C124.915 28.9029 125.027 29.2295 125.251 29.4722Z" fill="#639288"/>
</svg>
