<svg width="102" height="26" viewBox="0 0 102 26" fill="none" xmlns="http://www.w3.org/2000/svg">
<path fill-rule="evenodd" clip-rule="evenodd" d="M20.486 25.568C25.824 25.568 29.326 22.814 29.326 18.428C29.326 14.926 27.388 13.056 22.798 11.254L20.996 10.54C17.528 9.146 16.1 7.854 16.1 5.576C16.1 2.958 17.868 1.156 20.69 1.156C24.056 1.156 26.47 3.298 27.116 6.8H27.966V1.972C26.776 1.258 24.464 0 20.758 0C16.202 0 13.108 2.652 13.108 6.732C13.108 10.88 16.338 12.478 19.568 13.736L21.336 14.45C24.872 15.844 26.334 17.204 26.334 19.516C26.334 22.508 23.92 24.412 20.486 24.412C16.814 24.412 14.128 22.1 13.584 18.156H12.734V23.426C13.686 24.14 16.542 25.568 20.486 25.568ZM44.8215 25.568C52.1655 25.568 57.0955 20.434 57.0955 12.614C57.0955 4.692 52.2675 0 45.0935 0C37.7495 0 32.7855 5.134 32.7855 12.954C32.7855 20.876 37.6135 25.568 44.8215 25.568ZM45.1615 24.378C40.0275 24.378 36.6615 19.89 36.6615 12.512C36.6615 5.474 39.6195 1.19 44.7195 1.19C49.8535 1.19 53.2535 5.678 53.2535 13.056C53.2535 20.094 50.2615 24.378 45.1615 24.378ZM89.0338 16.9704C89.1458 16.9704 89.3208 16.9774 89.5588 16.9914C89.8108 17.0054 90.0488 17.0194 90.2728 17.0334C90.4968 17.0474 90.7558 17.0614 91.0498 17.0754H91.9108H92.0158C92.2818 17.9294 92.4848 18.9934 92.6248 20.2674C92.7788 21.5274 92.8978 22.6124 92.9818 23.5224C93.0658 24.4184 93.1848 24.9644 93.3388 25.1604H101.088C100.794 24.7824 100.521 24.2154 100.269 23.4594C100.031 22.7034 99.8138 21.9404 99.6178 21.1704C99.4358 20.3864 99.2188 19.6164 98.9668 18.8604C98.7148 18.0904 98.3578 17.4254 97.8958 16.8654C97.4478 16.3054 96.9088 15.9484 96.2788 15.7944C97.4408 15.0524 98.3718 14.0514 99.0718 12.7914C99.7858 11.5314 100.143 10.0894 100.143 8.46537C100.143 5.72137 99.3938 3.68437 97.8958 2.35437C96.4118 1.02437 94.1578 0.359375 91.1338 0.359375C90.2658 0.359375 89.1668 0.394376 87.8368 0.464375C86.5068 0.520375 85.5058 0.548375 84.8338 0.548375H82.0618V25.1604H89.0338V16.9704ZM89.0338 13.0644V4.41238H89.4328C90.6228 4.41238 91.5328 4.65738 92.1628 5.14738C92.8068 5.62338 93.1288 6.47038 93.1288 7.68838V9.34737C93.1288 9.90737 93.0868 10.3974 93.0028 10.8174C92.9188 11.2374 92.7928 11.5804 92.6248 11.8464C92.4568 12.1124 92.2748 12.3294 92.0788 12.4974C91.8968 12.6654 91.6588 12.7914 91.3648 12.8754C91.0848 12.9454 90.8258 12.9944 90.5878 13.0224C90.3498 13.0504 90.0558 13.0644 89.7058 13.0644H89.0338ZM69.92 25.6014C71.39 25.6014 72.678 25.4614 73.784 25.1814C74.904 24.9014 75.807 24.5304 76.493 24.0684C77.193 23.5924 77.753 23.0044 78.173 22.3044C78.607 21.5904 78.901 20.8554 79.055 20.0994C79.223 19.3434 79.307 18.4964 79.307 17.5584V0.548375H72.671V16.5504C72.671 17.4464 72.601 18.2094 72.461 18.8394C72.335 19.4554 72.146 19.9314 71.894 20.2674C71.642 20.5894 71.369 20.8204 71.075 20.9604C70.781 21.0864 70.438 21.1494 70.046 21.1494C69.332 21.1494 68.786 20.8204 68.408 20.1624C68.044 19.4904 67.862 18.2654 67.862 16.4874V0.548375H60.386V17.4324C60.386 18.3844 60.477 19.2524 60.659 20.0364C60.841 20.8204 61.156 21.5694 61.604 22.2834C62.066 22.9834 62.647 23.5714 63.347 24.0474C64.061 24.5234 64.971 24.9014 66.077 25.1814C67.197 25.4614 68.478 25.6014 69.92 25.6014ZM6.408 7.29216C6.544 7.06016 6.636 6.80016 6.684 6.51216H5.856C5.816 6.82416 5.68 7.08016 5.448 7.28016C5.216 7.48016 4.92 7.58016 4.56 7.58016C4.32 7.58016 4.1 7.52816 3.9 7.42416C3.708 7.32016 3.54 7.18016 3.396 7.00416C3.26 6.82816 3.156 6.62416 3.084 6.39216C3.012 6.16016 2.976 5.91216 2.976 5.64816C2.976 5.40016 3.008 5.16816 3.072 4.95216C3.144 4.72816 3.244 4.53616 3.372 4.37616C3.508 4.21616 3.672 4.08816 3.864 3.99216C4.056 3.89616 4.28 3.84816 4.536 3.84816C4.88 3.84816 5.168 3.94416 5.4 4.13616C5.64 4.32816 5.792 4.57616 5.856 4.88016H6.672C6.592 4.28816 6.352 3.84016 5.952 3.53616C5.56 3.22416 5.088 3.06816 4.536 3.06816C4.144 3.06816 3.792 3.13616 3.48 3.27216C3.168 3.40816 2.904 3.59216 2.688 3.82416C2.472 4.04816 2.304 4.32016 2.184 4.64016C2.072 4.95216 2.016 5.28816 2.016 5.64816C2.016 6.03216 2.076 6.39216 2.196 6.72816C2.316 7.05616 2.488 7.34416 2.712 7.59216C2.936 7.83216 3.204 8.02016 3.516 8.15616C3.828 8.29216 4.176 8.36016 4.56 8.36016C4.824 8.36016 5.072 8.32016 5.304 8.24016C5.544 8.15216 5.756 8.02816 5.94 7.86816C6.124 7.70816 6.28 7.51616 6.408 7.29216ZM7.584 4.14816C7.76 4.60416 7.848 5.10416 7.848 5.64816C7.848 6.20016 7.76 6.70416 7.584 7.16016C7.408 7.60816 7.164 7.99616 6.852 8.32416C6.54 8.65216 6.176 8.90816 5.76 9.09216C5.344 9.26816 4.896 9.35616 4.416 9.35616C3.88 9.35616 3.4 9.26016 2.976 9.06816C2.552 8.86816 2.188 8.60016 1.884 8.26416C1.588 7.92816 1.36 7.53616 1.2 7.08816C1.04 6.64016 0.96 6.16016 0.96 5.64816C0.96 5.10416 1.048 4.60416 1.224 4.14816C1.4 3.69216 1.644 3.30016 1.956 2.97216C2.268 2.64416 2.632 2.39216 3.048 2.21616C3.472 2.03216 3.928 1.94016 4.416 1.94016C4.896 1.94016 5.344 2.03216 5.76 2.21616C6.176 2.39216 6.54 2.64416 6.852 2.97216C7.164 3.30016 7.408 3.69216 7.584 4.14816ZM8.448 7.48416C8.688 6.93216 8.808 6.32016 8.808 5.64816C8.808 4.97616 8.688 4.36416 8.448 3.81216C8.216 3.26016 7.896 2.78816 7.488 2.39616C7.088 2.00416 6.62 1.70016 6.084 1.48416C5.556 1.26816 5 1.16016 4.416 1.16016C3.824 1.16016 3.26 1.26816 2.724 1.48416C2.188 1.70016 1.716 2.00416 1.308 2.39616C0.908 2.78816 0.588 3.26016 0.348 3.81216C0.116 4.36416 0 4.97616 0 5.64816C0 6.28816 0.108 6.88416 0.324 7.43616C0.548 7.98016 0.852 8.45216 1.236 8.85216C1.628 9.25216 2.092 9.56816 2.628 9.80016C3.172 10.0242 3.768 10.1362 4.416 10.1362C5 10.1362 5.556 10.0282 6.084 9.81216C6.62 9.59616 7.088 9.29216 7.488 8.90016C7.896 8.50816 8.216 8.03616 8.448 7.48416Z" fill="#639288"/>
</svg>
