<svg width="96" height="27" viewBox="0 0 96 27" fill="none" xmlns="http://www.w3.org/2000/svg">
<path d="M10.812 17.306C10.54 17.85 10.0413 18.3713 9.316 18.87C8.59067 19.346 7.52533 19.584 6.12 19.584C4.73733 19.584 3.37733 19.074 2.04 18.054C0.725333 17.034 0.068 15.5153 0.068 13.498C0.068 11.4807 0.702667 9.74667 1.972 8.296C3.24133 6.84533 5.066 6.12 7.446 6.12C11.798 6.12 13.974 8.78334 13.974 14.11C13.974 16.6033 13.328 18.8813 12.036 20.944C10.5627 23.324 8.364 24.9673 5.44 25.874C3.83067 26.3953 2.01733 26.656 0 26.656L0.0339999 26.418C4.046 26.418 6.97 25.126 8.806 22.542C9.80333 21.1367 10.472 19.3913 10.812 17.306ZM10.982 16.456C11.186 15.0507 11.288 13.7587 11.288 12.58C11.288 10.5853 10.9027 9.05533 10.132 7.99C9.384 6.92467 8.398 6.392 7.174 6.392C5.95 6.392 4.90733 7.072 4.046 8.432C3.20733 9.792 2.788 11.492 2.788 13.532C2.788 15.5493 3.17333 17.0227 3.944 17.952C4.73733 18.8587 5.68933 19.312 6.8 19.312C7.548 19.312 8.262 19.0967 8.942 18.666C9.64467 18.2353 10.1547 17.8047 10.472 17.374C10.812 16.9207 10.982 16.6147 10.982 16.456Z" fill="#639288"/>
<path d="M16.6759 14.79C16.6759 12.41 17.5713 10.3813 19.3619 8.704C21.1753 7.004 23.4193 6.154 26.0939 6.154C28.7686 6.154 30.9446 6.85667 32.6219 8.262C34.3219 9.64467 35.1719 11.8207 35.1719 14.79C35.1719 17.17 34.2653 19.21 32.4519 20.91C30.6613 22.5873 28.4286 23.426 25.7539 23.426C23.0793 23.426 20.8919 22.7347 19.1919 21.352C17.5146 19.9467 16.6759 17.7593 16.6759 14.79ZM19.3959 14.79C19.3959 17.646 19.9966 19.754 21.1979 21.114C22.3993 22.474 23.9406 23.154 25.8219 23.154C27.7033 23.154 29.2786 22.338 30.5479 20.706C31.8173 19.074 32.4519 17.102 32.4519 14.79C32.4519 11.934 31.8513 9.826 30.6499 8.466C29.4486 7.106 27.9073 6.426 26.0259 6.426C24.1446 6.426 22.5693 7.242 21.2999 8.874C20.0306 10.506 19.3959 12.478 19.3959 14.79Z" fill="#639288"/>
<path d="M52.4264 23.29C51.4971 23.29 50.7831 23.086 50.2844 22.678C49.8084 22.27 49.5591 21.862 49.5364 21.454L49.5024 20.876V10.2C49.5024 8.40934 49.0377 7.26467 48.1084 6.766C47.6324 6.53933 47.0431 6.426 46.3404 6.426C44.8897 6.426 43.5864 7.004 42.4304 8.16C41.2744 9.29333 40.6964 10.3133 40.6964 11.22V23.29H38.3164V6.29H40.6964V10.166C41.0817 9.19133 41.7957 8.28467 42.8384 7.446C43.8811 6.58467 45.0257 6.154 46.2724 6.154C47.5191 6.154 48.5277 6.27867 49.2984 6.528C50.0917 6.75467 50.6697 7.08333 51.0324 7.514C51.5991 8.21667 51.8824 9.12333 51.8824 10.234V20.876C51.8824 21.5333 52.0071 22.0433 52.2564 22.406C52.5284 22.746 52.8004 22.9273 53.0724 22.95L53.4464 23.018H54.5004V23.29H52.4264Z" fill="#639288"/>
<path d="M59.6809 23.29C58.7516 23.29 58.0376 23.086 57.5389 22.678C57.0629 22.27 56.8136 21.862 56.7909 21.454L56.7569 20.876V6.29H59.1369V20.876C59.1369 21.5333 59.2616 22.0433 59.5109 22.406C59.7829 22.746 60.0436 22.9273 60.2929 22.95L60.7009 23.018H61.7549V23.29H59.6809ZM56.9609 2.482C56.6889 2.21 56.5529 1.87 56.5529 1.462C56.5529 1.054 56.6889 0.714001 56.9609 0.442C57.2329 0.147333 57.5729 0 57.9809 0C58.3889 0 58.7289 0.147333 59.0009 0.442C59.2956 0.714001 59.4429 1.054 59.4429 1.462C59.4429 1.87 59.2956 2.21 59.0009 2.482C58.7289 2.754 58.3889 2.89 57.9809 2.89C57.5729 2.89 57.2329 2.754 56.9609 2.482Z" fill="#639288"/>
<path d="M77.9264 23.29C76.9971 23.29 76.2831 23.086 75.7844 22.678C75.3084 22.27 75.0591 21.862 75.0364 21.454L75.0024 20.876V10.2C75.0024 8.40934 74.5377 7.26467 73.6084 6.766C73.1324 6.53933 72.5431 6.426 71.8404 6.426C70.3897 6.426 69.0864 7.004 67.9304 8.16C66.7744 9.29333 66.1964 10.3133 66.1964 11.22V23.29H63.8164V6.29H66.1964V10.166C66.5817 9.19133 67.2957 8.28467 68.3384 7.446C69.3811 6.58467 70.5257 6.154 71.7724 6.154C73.0191 6.154 74.0277 6.27867 74.7984 6.528C75.5917 6.75467 76.1697 7.08333 76.5324 7.514C77.0991 8.21667 77.3824 9.12333 77.3824 10.234V20.876C77.3824 21.5333 77.5071 22.0433 77.7564 22.406C78.0284 22.746 78.3004 22.9273 78.5724 22.95L78.9464 23.018H80.0004V23.29H77.9264Z" fill="#639288"/>
<path d="M83.6929 14.994C83.6929 17.8047 84.1802 19.8673 85.1549 21.182C86.1522 22.4967 87.4555 23.154 89.0649 23.154C91.3315 23.154 93.3489 22.814 95.1169 22.134L95.2189 22.372C93.4055 23.0747 91.3542 23.426 89.0649 23.426C86.7982 23.426 84.9509 22.746 83.5229 21.386C82.0949 20.026 81.3809 17.9293 81.3809 15.096C81.3809 12.2627 82.1289 10.064 83.6249 8.5C85.1209 6.936 87.0249 6.154 89.3369 6.154C91.1955 6.154 92.7595 6.70933 94.0289 7.82C95.2982 8.93067 95.9329 10.574 95.9329 12.75C95.9329 12.8633 95.9329 12.9767 95.9329 13.09H83.7949C83.7269 13.702 83.6929 14.3367 83.6929 14.994ZM93.6209 12.818C93.5982 10.642 93.1789 9.03267 92.3629 7.99C91.5469 6.94733 90.4929 6.426 89.2009 6.426C87.9089 6.426 86.7529 6.99267 85.7329 8.126C84.7355 9.25934 84.1009 10.8233 83.8289 12.818H93.6209Z" fill="#639288"/>
</svg>
