<svg width="115" height="27" viewBox="0 0 115 27" fill="none" xmlns="http://www.w3.org/2000/svg">
<path fill-rule="evenodd" clip-rule="evenodd" d="M3.196 25.568V13.974H16.728V25.568H19.924V0H16.728V10.914H3.196V0H0V25.568H3.196ZM32.1396 26.044C35.7096 26.044 37.7496 24.684 38.2596 23.698V25.568H41.4216V8.432H38.2596V18.7C38.2596 19.074 38.2596 19.516 38.1916 19.89C37.8176 21.93 35.3016 22.916 32.7856 22.916C29.5896 22.916 28.0256 21.726 28.0256 18.734V8.432H24.8636V18.87C24.8636 23.8 27.2436 26.044 32.1396 26.044ZM49.8108 14.314V25.568H46.7168V8.432H49.8108V10.2C50.0488 9.826 51.5448 7.752 54.9448 7.752C57.6988 7.752 59.8068 9.146 60.6228 10.2C60.9288 9.792 63.0708 7.752 66.4368 7.752C69.4968 7.752 71.9108 9.35 72.5228 11.594C72.7948 12.478 72.8288 13.736 72.8288 14.314V25.568H69.7348V14.314C69.7348 12.818 68.6128 10.812 65.4848 10.812C62.3568 10.812 61.2688 12.818 61.3028 14.314V25.568H58.2768V14.314C58.2768 12.818 57.1208 10.812 53.9928 10.812C50.8648 10.812 49.7768 12.818 49.8108 14.314ZM100.812 25.568V15.3C100.812 14.926 100.812 14.484 100.88 14.11C101.254 12.07 103.872 10.846 106.388 10.846C108.564 10.846 110.502 11.764 111.046 13.498C111.216 14.076 111.284 14.654 111.284 15.232V25.568H114.446V15.096C114.446 10.064 111.726 7.718 106.966 7.752C103.396 7.786 101.356 9.214 100.812 10.268V8.432H97.6504V25.568H100.812ZM87.1061 25.8604C82.6861 25.8604 81.1901 24.4324 80.4421 23.5144V25.3844H77.3481V14.9464C77.3481 9.33636 80.1361 7.77236 84.7601 7.56836C90.8801 7.56836 93.1241 10.3904 93.2261 13.0084H90.1661C89.7241 11.5124 88.2961 10.6624 85.3381 10.6624C81.6321 10.6624 80.4761 11.7164 80.4761 14.5384L87.1061 14.9464C91.2541 15.2184 94.0081 16.0344 94.0081 19.9784C94.0081 22.5624 92.0701 25.8604 87.1061 25.8604ZM85.9161 22.7664C90.4041 22.7664 90.8801 20.9304 90.8801 19.9784C90.8801 18.3464 90.0301 17.9044 86.7661 17.6664C86.6459 17.6597 86.4223 17.6465 86.1228 17.6287C84.8961 17.5562 82.3956 17.4083 80.5101 17.3264V19.0944C80.5101 21.4404 83.0261 22.7664 85.9161 22.7664ZM93.348 1.56836H77.348V4.56836H93.348V1.56836Z" fill="#639288"/>
</svg>
