<svg width="114" height="35" viewBox="0 0 114 35" fill="none" xmlns="http://www.w3.org/2000/svg">
<path fill-rule="evenodd" clip-rule="evenodd" d="M48.2059 0C49.1959 0 50.0509 0.24 50.7709 0.720001C51.4909 1.17 51.8509 2.025 51.8509 3.285C51.8509 4.515 51.4909 5.37 50.7709 5.85C50.0509 6.33 49.1959 6.57 48.2059 6.57C47.1859 6.57 46.3159 6.33 45.5959 5.85C44.9059 5.37 44.5609 4.515 44.5609 3.285C44.5609 2.025 44.9059 1.17 45.5959 0.720001C46.3159 0.24 47.1859 0 48.2059 0ZM51.5359 9.63V34.2H44.8309V9.63H51.5359ZM20.565 31.32C22.725 29.1 23.805 25.95 23.805 21.87C23.805 19.14 23.295 16.845 22.275 14.985C21.255 13.095 19.86 11.655 18.09 10.665C16.32 9.675 14.28 9.18 11.97 9.18C8.25 9.18 5.325 10.275 3.195 12.465C1.065 14.655 0 17.79 0 21.87C0 24.6 0.51 26.925 1.53 28.845C2.55 30.735 3.945 32.175 5.715 33.165C7.515 34.155 9.555 34.65 11.835 34.65C15.525 34.65 18.435 33.54 20.565 31.32ZM8.01 27.405C7.23 26.145 6.84 24.3 6.84 21.87C6.84 19.44 7.23 17.625 8.01 16.425C8.82 15.195 10.11 14.58 11.88 14.58C13.68 14.58 14.97 15.195 15.75 16.425C16.56 17.625 16.965 19.44 16.965 21.87C16.965 24.3 16.56 26.145 15.75 27.405C14.97 28.635 13.695 29.25 11.925 29.25C10.125 29.25 8.82 28.635 8.01 27.405ZM41.7663 9.225C41.3163 9.195 40.9263 9.18 40.5963 9.18C38.9463 9.18 37.4913 9.63 36.2313 10.53C34.9713 11.43 33.9813 12.51 33.2613 13.77H32.9463L31.9563 9.63H26.8713V34.2H33.5763V21.69C33.5763 20.13 33.8913 18.9 34.5213 18C35.1813 17.1 36.0363 16.455 37.0863 16.065C38.1363 15.645 39.2313 15.435 40.3713 15.435C40.6713 15.435 41.0163 15.465 41.4063 15.525C41.8263 15.555 42.1413 15.6 42.3513 15.66L42.8463 9.36C42.5763 9.3 42.2163 9.255 41.7663 9.225ZM104.435 9.18066C107.075 9.18066 109.19 9.90066 110.78 11.3407C112.37 12.7507 113.165 15.0307 113.165 18.1807V34.2007H106.46V19.8457C106.46 18.0757 106.145 16.7557 105.515 15.8857C104.885 14.9857 103.88 14.5357 102.5 14.5357C100.46 14.5357 99.065 15.2407 98.315 16.6507C97.565 18.0307 97.19 20.0257 97.19 22.6357V34.2007H90.485V9.63067H95.615L96.515 12.7807H96.875C97.655 11.5207 98.72 10.6057 100.07 10.0357C101.45 9.46566 102.905 9.18066 104.435 9.18066ZM66.975 16.2002H75.975C79.2887 16.2002 81.975 18.8865 81.975 22.2002C81.975 25.5139 79.2887 28.2002 75.975 28.2002H66.975C63.6613 28.2002 60.975 25.5139 60.975 22.2002C60.975 18.8865 63.6613 16.2002 66.975 16.2002ZM54.975 22.2002C54.975 15.5728 60.3476 10.2002 66.975 10.2002H75.975C82.6024 10.2002 87.975 15.5728 87.975 22.2002C87.975 28.8276 82.6024 34.2002 75.975 34.2002H66.975C60.3476 34.2002 54.975 28.8276 54.975 22.2002Z" fill="#639288"/>
</svg>
